<svg id="Layer_1" data-name="Layer 1" xmlns="http://www.w3.org/2000/svg" viewBox="0 0 512 512"><defs><style>.cls-1{fill:#6d4135;}</style></defs><title>envelope-closed-outline</title><path class="cls-1" d="M490.67,74.67H21.33A21.33,21.33,0,0,0,0,96V416a21.33,21.33,0,0,0,21.33,21.33H490.67A21.33,21.33,0,0,0,512,416V96A21.33,21.33,0,0,0,490.67,74.67ZM256,280.5,76.51,117.33h359ZM42.67,144.22,174,263.58,42.67,371ZM205.88,292.59l35.77,32.52a21.32,21.32,0,0,0,28.7,0l35.77-32.52L430.9,394.67H81.1Zm132.16-29L469.33,144.22V371Z"/></svg>